<?xml version="1.0" encoding="UTF-8" standalone="no"?>
<svg
   id="Layer_4"
   data-name="Layer 4"
   version="1.1"
   viewBox="0 0 227.3 230.4"
   sodipodi:docname="pck.svg"
   inkscape:version="1.4.2 (f4327f4, 2025-05-13)"
   xmlns:inkscape="http://www.inkscape.org/namespaces/inkscape"
   xmlns:sodipodi="http://sodipodi.sourceforge.net/DTD/sodipodi-0.dtd"
   xmlns="http://www.w3.org/2000/svg"
   xmlns:svg="http://www.w3.org/2000/svg">
  <sodipodi:namedview
     id="namedview29"
     pagecolor="#ffffff"
     bordercolor="#000000"
     borderopacity="0.25"
     inkscape:showpageshadow="2"
     inkscape:pageopacity="0.0"
     inkscape:pagecheckerboard="0"
     inkscape:deskcolor="#d1d1d1"
     inkscape:zoom="5.0651043"
     inkscape:cx="124.47917"
     inkscape:cy="123.2946"
     inkscape:window-width="2560"
     inkscape:window-height="1369"
     inkscape:window-x="1912"
     inkscape:window-y="-8"
     inkscape:window-maximized="1"
     inkscape:current-layer="Layer_4" />
  <defs
     id="defs1">
    <style
       id="style1">
      .cls-1 {
        fill: #ff006a;
      }

      .cls-1, .cls-2 {
        stroke-width: 0px;
      }

      .cls-2 {
        fill: none;
      }
    </style>
  </defs>
  <g
     id="g28">
    <path
       class="cls-2"
       d="M41.4,100.5l.4-.2-3.2-12.7,5.9,6.8-.2-5.8c-.2-.6-.4-1.3-.5-1.9-1.9-8.2-3-16.2-3.1-16.5l-4.2-28.6c-3.1,10.1-6.3,25.3-3,39.2,1.1,4.5,2.3,8.7,3.5,12.5l4.3,7.2h0Z"
       id="path3" />
    <path
       class="cls-2"
       d="M183.5,86.7c-.1.6-.3,1.3-.5,1.9l-.2,5.8,5.9-6.8-3.2,12.7.4.2,4.3-7.2c1.2-3.8,2.5-7.9,3.5-12.5,3.3-13.9.1-29.1-3-39.2l-4.2,28.6c0,.3-1.2,8.3-3.1,16.5h.1Z"
       id="path7" />
    <path
       class="cls-2"
       d="M120.6,200.6c-2.4-1.3-5.6-1.5-6.8-1.5h-.4c-1.2,0-4.3.2-6.8,1.5l2.6.4-3.1,5.2c.5-.1,1.1-.2,1.7-.3h0c1.8,0,3.4.7,4.6,2.1.4.5.8,1,1.1,1.6.3-.6.7-1.1,1.1-1.6,1.2-1.4,2.9-2.1,4.7-2.1s1.1.1,1.7.3l-3.1-5.2,2.5-.4h.1Z"
       id="path11" />
    <path
       class="cls-1"
       d="M12.1,189.8l18.4-31.8c-1.2-2.8-2.1-5.9-2.8-9.1L0,196.8h46.4l-1.5-7H12.1Z"
       id="path23" />
    <path
       class="cls-1"
       d="M113.6,14l18.7,32.4c3.2.3,6.3.7,8.9,1.3L113.6,0l-27.5,47.7c2.5-.6,5.6-1,8.9-1.3l18.7-32.4h0Z"
       id="path25" />
    <path
       class="cls-1"
       d="M57.8,191.6c-.9-.5-1.8-1.1-2.6-1.8h-2.6v7h9.9c-1.5-2.4-3.1-4.3-4.6-5.2h-.1Z"
       id="path26" />
    <path
       class="cls-1"
       d="M172.1,189.8c-.9.7-1.7,1.3-2.6,1.8-1.6.9-3.2,2.9-4.6,5.2h9.9v-7h-2.7Z"
       id="path27" />
    <path
       class="cls-1"
       d="M215.1,189.8h-32.8l-1.5,7h46.4l-27.6-47.9c-.8,3.2-1.7,6.2-2.8,9.1l18.4,31.8h0Z"
       id="path28" />
  </g>
  <path
     class="cls-1"
     d="m 204.3,58.7 2.7,7.2 C 211.3,36.7 190.7,15.2 190.7,15.2 l -57,50.2 9.5,-12.3 c -6,-3.2 -29.5,-2.8 -29.5,-2.8 0,0 -23.5,-0.3 -29.5,2.8 L 93.7,65.4 36.6,15.2 c 0,0 -20.7,21.5 -16.3,50.7 L 23,58.7 c 0,0 -0.5,10.5 -2,17.3 -1.5,6.8 -0.3,20.3 -0.3,20.3 l 1.8,-15.7 c 0,0 2.8,9.7 1.5,17.2 -1.3,7.5 -2,24.9 -2,24.9 l 4.2,-23.2 c 0,0 9.2,17.7 11.3,22.5 l -8.2,-7.8 c 0,0 -1.7,31.8 7.8,47.2 9.5,15.3 10.8,21.5 10.8,21.5 v -10 c 0,0 5.5,11.2 12,14.8 6.5,3.7 11.2,16.8 11.2,16.8 L 70.4,192 c 0,0 10.9,17.5 7.4,24.5 0,0 4.5,-5.8 2.3,-12.3 C 77.9,197.7 72.6,179 72.6,179 l 16.3,37.5 c 0,0 9.8,13.5 23.2,13.8 h 3 c 13.3,-0.3 23.2,-13.8 23.2,-13.8 L 154.6,179 c 0,0 -5.3,18.7 -7.5,25.2 -2.2,6.5 2.3,12.3 2.3,12.3 -3.5,-7 7.4,-24.5 7.4,-24.5 l -0.7,12.5 c 0,0 4.7,-13.2 11.2,-16.8 6.5,-3.7 12,-14.8 12,-14.8 v 10 c 0,0 1.3,-6.2 10.8,-21.5 9.5,-15.3 7.8,-47.2 7.8,-47.2 l -8.2,7.8 C 191.9,117.2 201,99.5 201,99.5 l 4.2,23.2 c 0,0 -0.7,-17.4 -2,-24.9 -1.3,-7.5 1.5,-17.2 1.5,-17.2 l 1.8,15.7 c 0,0 1.2,-13.5 -0.3,-20.3 -1.5,-6.8 -2,-17.3 -2,-17.3 v 0 z M 57,115.9 l -9.3,-10.8 3,11.8 -9.5,-15.8 9.5,23.7 -8,-13.3 2.5,10.3 c 0,0 -10,-14.5 -16,-39.8 -6,-25.3 7.7,-53.8 7.7,-53.8 C 51.1,45.7 51.1,62 51.1,62 l -6.8,-8.7 7,29.5 -6,-13.2 c 0,0 1.2,8 3,16.2 1.8,8.2 9.7,16.8 9.7,16.8 -4.7,-1 -8.8,-7 -8.8,-7 0.2,5.8 8,20.3 8,20.3 z m 36.6,34.6 C 89.7,143.7 78.5,138.1 78.5,138.1 l 4.4,4.5 C 70.8,145.6 62,127.4 62,127.4 c 33.9,0.4 31.6,23.1 31.6,23.1 z m 34.9,57.8 c 0,0 -1.3,-4.1 -3.1,-3.8 0,0 3.5,5.8 1.8,9.1 -1.7,3.3 -4.1,-0.7 -4.1,-0.7 0,0 -3.2,-3.9 -4.9,-1.9 -1.7,2 -1.8,6.4 -1.8,6.4 h 2.1 c 0,0 1.7,0 1.7,1.6 0,1.6 -0.7,3.1 -3.2,3.1 h -6.5 c -2.6,0 -3.2,-1.5 -3.2,-3.1 0,-1.6 1.7,-1.6 1.7,-1.6 h 2.1 c 0,0 0,-4.4 -1.8,-6.4 -1.8,-2 -4.9,1.9 -4.9,1.9 0,0 -2.3,4 -4.1,0.7 -1.8,-3.3 1.8,-9.1 1.8,-9.1 -1.8,-0.2 -3.1,3.8 -3.1,3.8 -1.3,-14.3 14.8,-13.7 14.8,-13.7 0,0 16.2,-0.7 14.8,13.7 z m 15.9,-65.7 4.4,-4.5 c 0,0 -11.2,5.6 -15.1,12.4 0,0 -2.2,-22.8 31.6,-23.1 0,0 -8.8,18.2 -20.9,15.2 z m 53.7,-60.7 c -6,25.3 -16,39.8 -16,39.8 l 2.5,-10.3 -8,13.3 9.5,-23.7 -9.5,15.8 3,-11.8 -9.3,10.8 c 0,0 7.8,-14.5 8,-20.3 0,0 -4.2,6 -8.8,7 0,0 7.8,-8.7 9.7,-16.8 1.8,-8.2 3,-16.2 3,-16.2 l -6,13.2 7,-29.5 -6.8,8.7 c 0,0 0,-16.3 14.2,-33.8 0,0 13.7,28.5 7.7,53.8 z"
     id="path29"
     sodipodi:nodetypes="cccccccccccsccscccccccccccsccccccsccccccsccccsccsccccccccccscccccsccccsccccsccscsccssssccscscccccccccccccccccccccccccccc" />
</svg>
