<?xml version="1.0" encoding="UTF-8"?>
<svg id="Layer_4" data-name="Layer 4" xmlns="http://www.w3.org/2000/svg" version="1.1" viewBox="0 0 227.3 230.4">
  <defs>
    <style>
      .cls-1 {
        fill: none;
      }

      .cls-1, .cls-2 {
        stroke-width: 0px;
      }

      .cls-2 {
        fill: #ff006a;
      }
    </style>
  </defs>
  <g>
    <path class="cls-1" d="M52.5,189.8h2.6c-.9-.8-1.8-1.6-2.6-2.5v2.5Z"/>
    <path class="cls-1" d="M37.9,37.4c0,.2-.1.3-.2.5l1.9,2.4c-.5-1-1.1-1.9-1.7-2.9h0Z"/>
    <path class="cls-1" d="M33.3,163.8c-1.1-1.7-2-3.7-2.8-5.7l-18.4,31.8h32.8l-1.3-6s-1.5-6-10.3-20.1h0Z"/>
    <path class="cls-1" d="M33.8,124.7c.1,3.6.4,7.8.9,12.1l4.2-7.2-5.1-4.8h0Z"/>
    <path class="cls-1" d="M41.4,100.5l.4-.2-3.2-12.7,5.9,6.8-.2-5.8c-.2-.6-.4-1.3-.5-1.9-1.9-8.2-3-16.2-3.1-16.5l-4.2-28.6c-3.1,10.1-6.3,25.3-3,39.2,1.1,4.5,2.3,8.7,3.5,12.5l4.3,7.2Z"/>
    <path class="cls-1" d="M28.5,37c0-.2.1-.4.2-.7,0,.2-.1.3-.2.5h0c0,.1,0,.1,0,.1Z"/>
    <path class="cls-1" d="M198.8,36.7c-.1-.3-.2-.6-.3-.8.1.3.2.7.4,1.1v-.2h0Z"/>
    <path class="cls-1" d="M196.8,158c-.8,2-1.8,4-2.8,5.7-8.8,14.1-10.3,20.1-10.3,20.1l-1.3,5.9h32.8l-18.4-31.8h0Z"/>
    <path class="cls-1" d="M38.1,22.5l2.2,2.7c15,18.5,15.2,35.9,15.2,36.7v13l-2.2-2.9,2.3,9.7-3.4,1.2c.1.6.3,1.3.4,1.9.9,3.8,3.5,8.1,5.7,11.2l21.3-36.9L38.1,22.5h0Z"/>
    <path class="cls-1" d="M172.1,189.8h2.6v-2.5c-.8.9-1.7,1.7-2.6,2.5Z"/>
    <path class="cls-1" d="M183.5,86.7c-.1.6-.3,1.3-.5,1.9l-.2,5.8,5.9-6.8-3.2,12.7.4.2,4.3-7.2c1.2-3.8,2.5-7.9,3.5-12.5,3.3-13.9.1-29.1-3-39.2l-4.2,28.6c0,.3-1.2,8.3-3.1,16.5h0Z"/>
    <path class="cls-1" d="M189.5,37.9c0-.2-.1-.3-.2-.5-.6,1-1.2,2-1.8,3l2-2.5h0Z"/>
    <path class="cls-1" d="M158.9,180.3l3.4-5.4-.6,11.7c1.1-1.1,2.2-2,3.5-2.7,4.3-2.4,8.9-10.3,10.2-12.9l8.5-17.3v9.6c.8-1.3,1.6-2.7,2.5-4.1,2-3.2,3.4-7.2,4.4-11.5l-7.5-13-7,6.7,4-8.9-8.2,11.9,4.5-18.4-11.8,19.6,3.7-14.4c-2.4,4.3-9.3,15-19.2,16.3l-2.5,2.9,1.5-2.8c-1.6.1-3.2,0-4.9-.4h-.1c-2.3,1.7-4.5,3.7-5.6,5.7l-7,12.2-1.4-14c0-.4-.9-9.6,6.2-17.4,5.6-6.2,14.3-9.8,26-10.5l5-9.2c.7-1.3,1.5-2.9,2.3-4.5l-1-1.7-10.9,2.3,7.5-8.2-21.9-37.9-5.8,5.1-6.5-6.1,5.3-6.9c-5.7-.8-14.3-1.1-21.7-1h-.1c-7.3-.1-16,.3-21.7,1l5.3,6.9-6.5,6.1-5.8-5.1-21.9,37.9,7.4,8.2-10.9-2.3-1,1.7c.8,1.6,1.6,3.2,2.3,4.5l5,9.2c11.7.7,20.4,4.3,26,10.5,7,7.8,6.2,17,6.2,17.4l-1.4,14-7-12.2c-1.1-2-3.3-4-5.6-5.8h-.1c-1.7.5-3.3.6-4.9.5l1.5,2.8-2.5-2.9c-9.9-1.3-16.9-12-19.2-16.3l3.7,14.4-11.8-19.6,4.5,18.4-8.2-11.9,4,8.9-7-6.7-7.5,13c1.1,4.3,2.5,8.3,4.4,11.5.9,1.5,1.7,2.8,2.5,4.1v-9.6l8.5,17.3c1.9,3.8,6.3,10.7,10.2,12.9,1.2.7,2.4,1.6,3.5,2.7l-.6-11.7,3.4,5.4,8.4-3,5.5,12.6h62.8l5.5-12.6,8.4,3h0Z"/>
    <path class="cls-1" d="M174.8,84.7c.1-.6.3-1.3.4-1.9l-3.4-1.2,2.3-9.7-2.2,2.9v-13c0-.7.2-18.1,15.2-36.7l2.2-2.7-41.5,36.5,21.3,36.9c2.2-3.1,4.9-7.4,5.7-11.2h0Z"/>
    <path class="cls-1" d="M120.6,200.6c-2.4-1.3-5.6-1.5-6.8-1.5h-.4c-1.2,0-4.3.2-6.8,1.5l2.6.4-3.1,5.2c.5-.1,1.1-.2,1.7-.3h.1c1.8,0,3.4.7,4.6,2.1.4.5.8,1,1.1,1.6.3-.6.7-1.1,1.1-1.6,1.2-1.4,2.9-2.1,4.7-2.1.6,0,1.1.1,1.7.3l-3.1-5.2,2.5-.4h0Z"/>
    <path class="cls-1" d="M101.6,219.4c-.4,0-1,0-1.6-.3l-.5,1.6c1.4,1.1,2.9,2.1,4.6,2.9-.9-1.2-1.4-2.6-1.4-4.3-.3,0-.6,0-1,0h0Z"/>
    <path class="cls-1" d="M125.6,219.4c-.4,0-.7,0-1,0,0,1.7-.6,3.1-1.4,4.3,1.7-.9,3.2-1.9,4.6-2.9l-.5-1.6c-.6.2-1.2.3-1.6.3h0Z"/>
    <path class="cls-1" d="M113.6,45.7c2.5,0,10.9,0,18.7.6l-18.7-32.4-18.7,32.4c7.8-.7,16.1-.7,18.7-.6Z"/>
    <path class="cls-1" d="M133,208.7l-.7,8c1.1-1.1,1.8-2,2.2-2.5l7.6-17.4h-12.1c1.9,2.4,3.6,6.2,3.1,11.9h0Z"/>
    <path class="cls-1" d="M193.5,124.7l-5,4.8,4.2,7.2c.5-4.3.8-8.5.9-12.1Z"/>
    <path class="cls-1" d="M92.9,214.3c.4.5,1.1,1.4,2.2,2.5l-.8-8c-.5-5.7,1.2-9.5,3.1-11.9h-12.1l7.6,17.4h0Z"/>
    <path class="cls-2" d="M167.6,107.6l1,1.7c.3-.7.7-1.4,1-2.1l-2,.4h0Z"/>
    <path class="cls-2" d="M166.1,99.5c.7-.7,1.7-2,2.9-3.6l-21.3-36.9-5.4,4.7,21.9,37.9,1.9-2.1h0Z"/>
    <path class="cls-2" d="M38.8,129.6l-4.2,7.2c.4,3.6,1,7.3,1.9,10.7l7.5-13-5.2-5h0Z"/>
    <path class="cls-2" d="M63,101.6l21.9-37.9-5.4-4.7-21.3,36.9c1.2,1.6,2.2,2.9,2.9,3.6l1.9,2.1h0Z"/>
    <path class="cls-2" d="M190.8,147.6c.9-3.5,1.5-7.1,1.9-10.7l-4.2-7.2-5.2,5,7.5,13h0Z"/>
    <path class="cls-2" d="M58.6,109.3l1-1.7-2-.4c.3.7.7,1.4,1,2.1h0Z"/>
    <path class="cls-2" d="M12.1,189.8l18.4-31.8c-1.2-2.8-2.1-5.9-2.8-9.1L0,196.8h46.4l-1.5-7H12.1Z"/>
    <path class="cls-2" d="M85.3,196.8h12.1c.3-.4.6-.7.9-1,5.3-5.6,13.7-5.7,15.3-5.6,1.6,0,10,0,15.3,5.6.3.3.6.7.9,1h12.1l3-7h-62.8l3.1,7h0Z"/>
    <path class="cls-2" d="M113.6,14l18.7,32.4c3.2.3,6.3.7,8.9,1.3L113.6,0l-27.5,47.7c2.5-.6,5.6-1,8.9-1.3,0,0,18.7-32.4,18.7-32.4Z"/>
    <path class="cls-2" d="M57.8,191.6c-.9-.5-1.8-1.1-2.6-1.8h-2.6v7h9.9c-1.5-2.4-3.1-4.3-4.6-5.2Z"/>
    <path class="cls-2" d="M172.1,189.8c-.9.7-1.7,1.3-2.6,1.8-1.6.9-3.2,2.9-4.6,5.2h9.9v-7h-2.6,0Z"/>
    <path class="cls-2" d="M215.1,189.8h-32.8l-1.5,7h46.4l-27.6-47.9c-.8,3.2-1.7,6.2-2.8,9.1l18.4,31.8Z"/>
  </g>
  <path class="cls-2" d="M204.3,58.7l2.7,7.2c4.3-29.2-16.3-50.7-16.3-50.7l-57,50.2,9.5-12.3c-6-3.2-29.5-2.8-29.5-2.8,0,0-23.5-.3-29.5,2.8l9.5,12.3L36.6,15.2s-20.7,21.5-16.3,50.7l2.7-7.2s-.5,10.5-2,17.3-.3,20.3-.3,20.3l1.8-15.7s2.8,9.7,1.5,17.2-2,24.9-2,24.9l4.2-23.2s9.2,17.7,11.3,22.5l-8.2-7.8s-1.7,31.8,7.8,47.2c9.5,15.3,10.8,21.5,10.8,21.5v-10s5.5,11.2,12,14.8c6.5,3.7,11.2,16.8,11.2,16.8l-.7-12.5s10.9,17.5,7.4,24.5c0,0,4.5-5.8,2.3-12.3s-7.5-25.2-7.5-25.2l16.3,37.5s9.8,13.5,23.2,13.8h3c13.3-.3,23.2-13.8,23.2-13.8l16.3-37.5s-5.3,18.7-7.5,25.2,2.3,12.3,2.3,12.3c-3.5-7,7.4-24.5,7.4-24.5l-.7,12.5s4.7-13.2,11.2-16.8c6.5-3.7,12-14.8,12-14.8v10s1.3-6.2,10.8-21.5c9.5-15.3,7.8-47.2,7.8-47.2l-8.2,7.8c2.2-4.8,11.3-22.5,11.3-22.5l4.2,23.2s-.7-17.4-2-24.9,1.5-17.2,1.5-17.2l1.8,15.7s1.2-13.5-.3-20.3-2-17.3-2-17.3h0ZM57,115.9l-9.3-10.8,3,11.8-9.5-15.8,9.5,23.7-8-13.3,2.5,10.3s-10-14.5-16-39.8,7.7-53.8,7.7-53.8c14.2,17.5,14.2,33.8,14.2,33.8l-6.8-8.7,7,29.5-6-13.2s1.2,8,3,16.2,9.7,16.8,9.7,16.8c-4.7-1-8.8-7-8.8-7,.2,5.8,8,20.3,8,20.3h0ZM93.6,150.5c-3.9-6.8-15.1-12.4-15.1-12.4l4.4,4.5c-12.1,3-20.9-15.2-20.9-15.2,33.9.4,31.6,23.1,31.6,23.1h0ZM128.5,208.3s-1.3-4.1-3.1-3.8c0,0,3.5,5.8,1.8,9.1s-4.1-.7-4.1-.7c0,0-3.2-3.9-4.9-1.9s-1.8,6.4-1.8,6.4h2.1s1.7,0,1.7,1.6-.7,3.1-3.2,3.1h-6.5c-2.6,0-3.2-1.5-3.2-3.1s1.7-1.6,1.7-1.6h2.1s0-4.4-1.8-6.4-4.9,1.9-4.9,1.9c0,0-2.3,4-4.1.7s1.8-9.1,1.8-9.1c-1.8-.2-3.1,3.8-3.1,3.8-1.3-14.3,14.8-13.7,14.8-13.7,0,0,16.2-.7,14.8,13.7ZM144.4,142.6l4.4-4.5s-11.2,5.6-15.1,12.4c0,0-2.2-22.8,31.6-23.1,0,0-8.8,18.2-20.9,15.2h0ZM198.1,81.9c-6,25.3-16,39.8-16,39.8l2.5-10.3-8,13.3,9.5-23.7-9.5,15.8,3-11.8-9.3,10.8s7.8-14.5,8-20.3c0,0-4.2,6-8.8,7,0,0,7.8-8.7,9.7-16.8,1.8-8.2,3-16.2,3-16.2l-6,13.2,7-29.5-6.8,8.7s0-16.3,14.2-33.8c0,0,13.7,28.5,7.7,53.8h0Z"/>
</svg>